<?xml version="1.0" encoding="UTF-8" ?>
<!DOCTYPE svg PUBLIC "-//W3C//DTD SVG 1.1//EN" "http://www.w3.org/Graphics/SVG/1.1/DTD/svg11.dtd">
<svg width="70" height="70" viewBox="0 0 1000 1000" version="1.1" xmlns="http://www.w3.org/2000/svg">
<g id="#000000ff">
</g>
<g id="#ffffffff">
<path fill="#ffffff" opacity="1.00" d=" M 465.45 88.75 C 524.68 82.12 586.50 93.81 637.26 125.75 C 701.82 164.06 744.87 232.29 760.05 304.99 C 763.61 315.42 761.14 329.46 772.22 335.77 C 823.62 372.67 854.11 438.60 843.56 501.64 C 839.57 530.53 827.58 557.98 810.69 581.63 C 807.96 584.65 810.40 588.57 814.03 589.01 C 834.75 590.34 855.79 592.81 875.63 599.35 C 882.90 601.14 889.17 610.39 882.52 616.52 C 869.53 628.58 851.09 631.65 835.13 638.23 C 812.04 647.81 786.41 644.21 762.87 651.76 C 758.31 653.02 751.56 658.06 755.96 663.03 C 774.01 681.38 802.43 682.23 822.13 697.86 C 830.63 704.07 825.82 715.89 817.38 719.36 C 789.85 732.87 758.67 735.37 728.94 740.94 C 724.69 741.64 718.05 744.76 720.81 750.05 C 734.03 763.30 755.89 761.78 769.12 774.93 C 775.04 780.46 770.25 789.38 763.75 791.87 C 738.21 802.39 710.16 802.93 682.97 802.16 C 657.61 800.30 631.25 798.27 606.73 806.77 C 602.72 808.29 604.53 813.15 608.11 813.76 C 629.60 820.79 653.09 820.14 674.15 828.76 C 679.80 830.77 685.67 838.05 680.68 843.61 C 672.44 852.88 659.48 855.30 648.37 859.61 C 621.36 869.72 592.20 867.98 563.98 870.08 C 561.02 870.26 555.74 871.24 557.51 875.41 C 565.67 882.56 580.88 877.21 586.30 887.92 C 585.47 899.32 571.11 901.48 562.61 905.62 C 533.14 915.60 502.64 922.79 472.04 927.92 C 461.78 928.37 447.41 926.06 444.51 914.35 C 441.93 904.11 454.08 900.40 457.32 892.34 C 460.69 886.11 456.80 878.14 450.60 875.49 C 437.53 869.36 422.81 872.82 409.03 870.61 C 378.86 868.13 347.37 865.96 319.74 852.23 C 311.06 848.31 312.64 836.10 321.33 833.32 C 345.92 822.26 373.13 816.81 400.00 815.86 C 405.86 815.07 412.57 815.22 417.43 811.48 C 419.71 805.19 410.80 803.65 406.43 802.76 C 348.68 794.38 289.60 806.68 231.94 796.19 C 225.79 794.82 216.61 791.91 217.68 783.95 C 220.61 776.09 229.08 772.06 236.57 769.58 C 254.09 765.28 271.90 761.48 288.65 754.65 C 292.26 753.59 296.68 748.64 292.07 745.90 C 281.23 740.46 268.68 741.27 256.99 739.25 C 224.61 733.55 191.34 729.75 160.70 717.17 C 151.30 713.23 138.34 705.16 143.12 693.11 C 155.39 674.53 181.04 674.35 197.19 661.19 C 201.54 658.10 205.65 650.94 199.88 647.10 C 187.43 639.94 172.35 640.75 158.71 637.32 C 134.42 631.96 108.67 629.32 86.40 617.65 C 77.21 612.25 84.02 601.76 92.34 600.35 C 119.90 592.54 148.78 590.55 177.15 588.07 C 183.79 587.55 184.04 579.58 180.56 575.41 C 160.62 545.32 148.89 509.26 150.43 473.01 C 150.40 420.35 178.61 369.74 220.14 338.16 C 224.66 334.52 230.35 330.99 231.62 324.89 C 241.32 262.89 268.74 202.29 314.92 158.95 C 355.46 119.59 409.70 95.87 465.45 88.75 M 385.15 137.15 C 385.00 192.06 385.08 246.99 385.12 301.90 C 462.03 302.02 538.96 302.01 615.87 301.90 C 615.91 246.99 615.99 192.06 615.84 137.14 C 538.95 137.08 462.05 137.07 385.15 137.15 M 303.39 367.55 C 266.82 378.15 231.01 403.17 220.68 441.62 C 207.76 490.18 223.14 552.11 270.42 576.52 C 294.67 591.74 324.58 590.83 352.00 588.51 C 378.76 585.75 407.25 574.72 421.70 550.67 C 432.72 528.20 445.02 504.79 465.86 489.88 C 498.07 469.78 543.43 489.59 557.43 523.42 C 569.40 548.13 587.58 571.41 613.15 582.91 C 635.39 592.76 660.43 590.89 684.01 588.89 C 714.73 585.46 745.73 570.01 761.31 542.34 C 783.45 504.30 786.93 453.20 762.75 415.26 C 744.48 389.16 714.29 371.16 683.00 366.57 C 584.95 365.52 487.06 368.18 389.00 367.31 C 360.51 366.97 331.86 365.01 303.39 367.55 Z" />
<path fill="#ffffff" opacity="1.00" d=" M 400.17 153.09 C 414.03 151.56 429.54 152.56 444.00 152.60 C 496.33 189.47 548.24 226.96 600.43 264.03 C 600.95 271.53 600.62 279.10 600.62 286.62 C 585.07 286.68 569.49 286.90 553.95 286.50 C 504.74 251.55 455.44 216.74 406.29 181.73 C 395.01 177.04 400.78 162.39 400.17 153.09 Z" />
</g>
<g id="#fd0e18ff">
<path fill="#fd0e18" opacity="1.00" d=" M 385.15 137.15 C 462.05 137.07 538.95 137.08 615.84 137.14 C 615.99 192.06 615.91 246.99 615.87 301.90 C 538.96 302.01 462.03 302.02 385.12 301.90 C 385.08 246.99 385.00 192.06 385.15 137.15 M 400.17 153.09 C 400.78 162.39 395.01 177.04 406.29 181.73 C 455.44 216.74 504.74 251.55 553.95 286.50 C 569.49 286.90 585.07 286.68 600.62 286.62 C 600.62 279.10 600.95 271.53 600.43 264.03 C 548.24 226.96 496.33 189.47 444.00 152.60 C 429.54 152.56 414.03 151.56 400.17 153.09 Z" />
</g>
</svg>
